<?xml version="1.0" encoding="utf-8"?>
<!-- Generator: Adobe Illustrator 15.1.0, SVG Export Plug-In . SVG Version: 6.00 Build 0)  -->
<!DOCTYPE svg PUBLIC "-//W3C//DTD SVG 1.1//EN" "http://www.w3.org/Graphics/SVG/1.1/DTD/svg11.dtd">
<svg version="1.1" id="Money" xmlns="http://www.w3.org/2000/svg" xmlns:xlink="http://www.w3.org/1999/xlink" x="0px" y="0px"
	 width="46.575px" height="27.332px" viewBox="0 0 46.575 27.332" enable-background="new 0 0 46.575 27.332" xml:space="preserve">
<path fill="#63D1BB" d="M42.669,0.001H3.904C1.748,0.001,0,1.75,0,3.906v19.521c0,2.156,1.748,3.905,3.904,3.905h38.766
	c2.156,0,3.906-1.749,3.906-3.905V3.906C46.576,1.75,44.826,0.001,42.669,0.001z M3.023,24.951V2.718h40.202v22.233H3.023z"/>
<path fill="#63D1BB" d="M6.928,21.047h32.396V6.623H6.928V21.047z M23.289,8.521c2.936,0,5.314,2.381,5.314,5.314
	c0,2.936-2.379,5.314-5.314,5.314c-2.937,0-5.314-2.379-5.314-5.314C17.973,10.899,20.352,8.521,23.289,8.521z"/>
</svg>
