<?xml version="1.0" encoding="utf-8"?>
<!-- Generator: Adobe Illustrator 15.1.0, SVG Export Plug-In . SVG Version: 6.00 Build 0)  -->
<!DOCTYPE svg PUBLIC "-//W3C//DTD SVG 1.1//EN" "http://www.w3.org/Graphics/SVG/1.1/DTD/svg11.dtd">
<svg version="1.1" id="Layer_1" xmlns="http://www.w3.org/2000/svg" xmlns:xlink="http://www.w3.org/1999/xlink" x="0px" y="0px"
	 width="14.961px" height="27.718px" viewBox="0 0 14.961 27.718" enable-background="new 0 0 14.961 27.718" xml:space="preserve">
<g id="facebook">
	<g>
		<path fill="#231F20" d="M11.662,5.193c1.026,0.028,1.993,0,2.681-0.3c0.391-0.818,0.557-1.854,0.619-2.989
			c-0.189-0.015-0.063-0.337-0.207-0.399c-0.029-0.201-0.277-0.194-0.309-0.397c-0.277-0.165-0.457-0.422-0.723-0.599
			c-0.728-0.162-1.44-0.334-2.164-0.498c-0.85,0.043-1.896-0.104-2.58,0.1C6.36,0.07,4.981,1.23,3.719,2.503
			C3.696,2.581,3.716,2.699,3.614,2.701C3.041,4.288,3.489,6.322,3.411,8.282C3.509,8.718,3.518,9.24,3.614,9.677
			c-0.997,0.297-2.211,0.388-3.401,0.5c-0.317,0.324-0.178,1.088-0.206,1.693c0.085,0.582,0.278,1.059,0.413,1.594
			c0.211,0.193,0.597,0.396,0.825,0.498c0.064,0.029,0.07,0.082,0.104,0.101c0.506,0.269,1.45,0.008,2.268,0.101
			c-0.137,1.977,0.256,3.915,0,5.68c0.007,0.326,0.295,0.381,0.207,0.797c0,0.963-0.066,1.99,0.209,2.691
			c-0.287,0.455-0.497,0.98-0.415,1.793c0.122,0.016,0.114,0.156,0.104,0.299c-0.074,0.471,0.643,0.176,0.516,0.699
			c0.162,0.455-0.428,0.184-0.414,0.498v0.895c0.531,0.285,1.463,0.182,2.269,0.199C7,27.296,8.28,27.236,8.876,26.519
			c0.459,0.234,0.916-0.014,1.237-0.199c-0.018-0.314,0.273-0.334,0.205-0.697c-0.004-0.328-0.172-0.496-0.103-0.896v-2.891
			c-0.206-2.293-0.048-4.938-0.309-7.176c0.888-0.105,1.917-0.074,2.577-0.399c0.357-0.45,0.377-1.229,0.517-1.895
			c0.177-0.227,0.222-0.583,0.206-0.996c0.189-0.213,0.068-0.729,0.104-1.096c-0.141-0.596-0.168-1.301-0.824-1.391
			c-0.885-0.234-2.043,0.596-2.991,0.299c0.049-1.133-0.293-2.342,0-3.387C10.242,5.614,10.942,5.396,11.662,5.193z M7.843,9.977
			c0.117,0.254,0.255,0.485,0.414,0.698c0.079,0.021,0.203,0.002,0.205,0.101c1.192,0.056,2.199-0.069,3.097-0.299
			c0,0.997-0.271,1.733-0.519,2.491c-0.662,0.045-1.468,0.301-1.958,0.199c-0.275,0.164-0.372,0.506-0.62,0.697
			c-0.049,0.441,0.142,0.495,0,0.797c-0.201,0.137-0.055,0.611-0.205,0.797v1.496c0.085,0.279-0.146,0.258-0.104,0.496v3.488
			c-0.084,0.281,0.146,0.258,0.104,0.498v2.988c0.063,0.271-0.132,0.791,0.103,0.896c-0.069,0.363-0.412-0.021-0.823,0.1
			c-0.528,0.123-0.927,0.369-1.548,0.4c0.117-0.354,0.32-0.623,0.311-1.098c0.049-0.381-0.365-0.311-0.516-0.49
			c0.193-0.643,0.563-1.117,0.722-1.793c0.197-0.514,0.714-1.297,0.31-1.793c-0.521-0.105-0.521,0.293-0.826,0.398
			c-0.021,0.076-0.002,0.195-0.103,0.199c-0.022,0.076-0.003,0.195-0.103,0.197c0.01,0.121-0.151,0.063,0,0
			c0.021-0.078,0.002-0.195,0.103-0.197c0.023-0.078,0.003-0.197,0.103-0.199v-0.299c0.369-0.576,0.671-1.215,0.826-1.994
			c0.191-0.279,0.283-0.656,0.412-0.996c0.156-0.262,0.34-0.869,0.104-1.195c-0.517,0.033-0.796,0.295-0.931,0.697
			c-0.319-0.189,0.162-0.436,0.104-0.697c0.138-0.23,0.169-0.566,0.31-0.797c0.201-0.414,0.563-1.305,0-1.596
			c-0.438-0.023-0.612,0.208-0.724,0.499c-0.214,0.189-0.43,0.383-0.516,0.697c-0.373-0.07-0.144-0.727-0.206-1.097
			c-0.067-0.521,0.122-0.899,0-1.195c-0.561-0.799-2.026-0.104-3.197-0.299c-0.107-0.308-0.222-0.983-0.104-1.194
			c1.045-0.089,2.479,0.2,3.197-0.199c0.023-0.078,0.002-0.197,0.104-0.199c0.094-0.723-0.271-1-0.516-1.396
			c0.232-0.806,0.041-2.02,0.104-2.988c0.233-0.142,0.328-0.414,0.515-0.599c0.112-0.955,0.674-1.476,0.723-2.489
			c-0.273,0-0.607-0.056-0.619,0.198C5.274,3.792,5.194,4.386,5.061,4.105C4.95,3.564,5.307,3.479,5.371,3.108
			c0.599-0.418,1.212-0.82,1.856-1.195c1.74-0.244,4.647-0.449,6.086,0.198c0.051,0.616-0.287,0.854-0.207,1.496h-1.547
			c-1.092,0.239-1.986,0.672-2.99,0.997c-0.24,0.066-0.276,0.331-0.517,0.398C8.016,5.398,7.828,5.648,7.742,5.999
			C7.663,7.429,7.875,8.587,7.843,9.977z"/>
	</g>
</g>
</svg>
