<svg style="display:none" xmlns="http://www.w3.org/2000/svg">
  <symbol viewBox="-2 -2 20 20" id="icon-search">
    <path d="M16.47,14.93l-3.415-3.415C14.02,10.226,14.6,8.634,14.6,6.899c0-4.253-3.447-7.699-7.7-7.699 S-0.8,2.646-0.8,6.899s3.446,7.7,7.699,7.7c1.734,0,3.326-0.58,4.613-1.546l3.417,3.416c0.203,0.202,0.418,0.33,0.771,0.33 c0.607,0,1.1-0.492,1.1-1.1C16.8,15.459,16.739,15.2,16.47,14.93z M1.399,6.899c0-3.038,2.462-5.5,5.5-5.5s5.5,2.462,5.5,5.5 s-2.462,5.5-5.5,5.5S1.399,9.938,1.399,6.899z"/>
  </symbol>
  <symbol viewBox="0 0 24 24" id="icon-cart">
    <path d="M19.542,7.229h-3.151l-3.407-6.814c-0.186-0.37-0.634-0.52-1.006-0.335
    c-0.371,0.187-0.521,0.636-0.335,1.006l3.071,6.144H5.576l3.072-6.144c0.186-0.371,0.035-0.82-0.335-1.006
    c-0.37-0.185-0.821-0.035-1.006,0.335L3.9,7.229H0.75C0.335,7.229,0,7.565,0,7.979s0.336,0.75,0.75,0.75h0.156l0.855,2.991
    c-0.188,0.137-0.316,0.348-0.316,0.596c0,0.395,0.309,0.709,0.697,0.738l1.656,5.795h12.697l1.655-5.795
    c0.388-0.027,0.698-0.344,0.698-0.738c0-0.25-0.129-0.459-0.316-0.596l0.854-2.992h0.157c0.414,0,0.75-0.336,0.75-0.75
    S19.957,7.229,19.542,7.229z M15.361,17.35H4.928l-1.224-4.285h12.881L15.361,17.35z M17.014,11.565H3.275L2.464,8.729h15.359
    L17.014,11.565z" />
  </symbol>
  <symbol viewBox="0 0 30 30" id="icon-insta">
    <path d="M21.765,12.14c-0.013-2.396-0.344-4.788-0.303-7.135C21.44,4.217,21.377,3.47,21.31,2.727
    c-0.104-0.3-0.11-0.699-0.151-1.063c-0.26-0.17-0.223-0.639-0.456-0.834c-0.423-0.233-1.201-0.114-1.744-0.221
    c-0.657-0.025-1.254-0.115-1.899-0.152c-1.936-0.102-3.973-0.076-5.995-0.076c-2.001,0-3.954-0.145-5.695-0.379H3.167
    C3.07,0.006,3.061,0.1,2.94,0.078c-0.6,0.033-1.077,0.188-1.596,0.303C1.135,0.5,0.924,0.615,0.662,0.685
    C0.526,0.877,0.149,0.83,0.054,1.063c-0.186,0.212,0.186,0.451,0,0.607v0.911c0.173,0.13,0.027,0.58,0.075,0.834v0.988
    c-0.017,1.28,0.134,2.396,0.076,3.719c0.467,2.763,0.374,6.537,0.076,9.414c0.154,0.578,0.362,1.104,0.455,1.746
    c0.256,0.479,0.335,1.133,0.683,1.52c0.502,0.206,1.233,0.186,1.898,0.229c0.383,0.099,0.667,0.293,1.14,0.301
    c2.843-0.211,5.496-0.154,8.427-0.229c2.704,0.24,5.802,0.188,8.275-0.228c0.195-0.135,0.128-0.529,0.228-0.76
    c-0.056-0.386,0.207-0.449,0.229-0.76C21.747,16.961,21.78,14.566,21.765,12.14z M8.784,5.914c0.757-0.152,1.479-0.34,2.429-0.303
    c0.71,0.075,1.287,0.282,1.897,0.455c0.115,0.185-0.243,0.547,0.152,0.685v0.075c0.06,0.018,0.149,0.002,0.151,0.076
    c0.445,0.035,0.794,0.168,1.063,0.379c0.45,0.056,0.536,0.477,1.139,0.301c-0.091,0.213-0.084,0.523-0.075,0.834
    c0.324,1.184,0.475,2.811,0.303,4.253c-0.164,0.163-0.215,0.442-0.303,0.683c-0.311,0.322-0.481,0.785-0.836,1.063
    c-0.095,0.236-0.25,0.408-0.454,0.533c-0.116,0.213-0.206,0.451-0.457,0.529c-0.298,0.163-0.577,0.012-0.834-0.076
    c-0.446,0.162-0.904,0.313-1.215,0.607c-0.816-0.096-1.648-0.176-2.43-0.305c-0.242-0.139-0.487-0.272-0.835-0.305
    c-0.228-0.203-0.496-0.363-0.837-0.455c-0.101-0.127-0.337-0.117-0.454-0.229c-0.198-0.029-0.229-0.227-0.456-0.229
    c-0.118-0.412-0.443-0.619-0.532-1.063c-0.227-0.331-0.309-0.805-0.455-1.215c-0.043-1.434,0.091-2.692,0.379-3.797
    c0.346-0.59,0.779-1.094,1.138-1.67c0.249,0.021,0.365-0.09,0.38-0.304c0.307,0.054,0.435-0.071,0.685-0.075
    C8.583,6.371,8.594,6.055,8.784,5.914z M7.114,3.182C6.997,2.919,7.048,2.49,7.039,2.119C7.032,1.835,7.317,1.841,7.343,1.588
    C7.34,1.514,7.25,1.529,7.191,1.512c0.126-0.146,0.7-0.098,0.834,0c0.132,0.537-0.354,0.455-0.531,0.684
    C7.505,2.363,7.816,2.228,7.95,2.271c0.029,0.854-0.06,1.496,0,2.202H7.494C7.487,4.707,7.722,4.699,7.95,4.701
    C7.89,4.988,8.042,5.064,8.025,5.309C7.799,5.462,7.308,5.351,6.963,5.384C6.86,4.789,7.198,4.009,7.114,3.182z M6.43,1.588
    c0.088-0.014,0.135,0.016,0.151,0.076c0.179,0.252,0.01,0.683-0.076,0.91C6.333,2.396,6.48,1.893,6.43,1.588z M6.583,3.41
    C6.451,3.341,6.415,3.173,6.43,2.953C6.563,3.025,6.597,3.191,6.583,3.41z M6.583,4.777C6.525,4.916,6.501,4.731,6.507,4.625
    C6.565,4.486,6.588,4.67,6.583,4.777z M6.43,5.005C6.606,4.98,6.514,5.224,6.659,5.231C6.65,5.425,6.376,5.41,6.279,5.309
    C6.318,5.197,6.391,5.115,6.43,5.005z M4.077,3.789C4.083,3.681,4.09,3.574,4.001,3.561c-0.073-0.732,0.13-1.415,0-1.973
    c0.25-0.155,0.769-0.042,1.139-0.077v1.14C5.052,2.714,4.937,2.751,4.76,2.727c-0.054,0.28,0.324,0.131,0.379,0.305
    C5.148,3.884,5.084,4.808,5.292,5.46C4.726,5.4,4.385,5.566,3.849,5.535c0.098-0.611-0.019-1.435,0.531-1.594
    C4.369,3.801,4.124,3.895,4.077,3.789z M3.546,3.789C3.342,3.81,3.329,3.255,3.469,3.182C3.797,3.188,3.718,3.683,3.546,3.789z
    M3.393,4.777C3.47,4.465,3.427,4.473,3.469,4.094C3.697,4.106,3.729,4.863,3.393,4.777z M3.622,2.727
    c-0.263,0.055-0.273-0.266-0.153-0.38C3.732,2.294,3.741,2.613,3.622,2.727z M3.622,1.588C3.655,1.746,3.57,1.789,3.546,1.892
    C3.37,1.914,3.462,1.673,3.317,1.662C3.342,1.561,3.508,1.601,3.622,1.588z M3.393,5.309c0.148-0.031,0.11,0.346-0.075,0.227
    C3.358,5.474,3.397,5.412,3.393,5.309z M2.71,1.588c0.029,0.259-0.438,0.32-0.379,0H2.71z M1.722,1.664
    C1.689,1.883,1.397,1.843,1.344,2.043C1.13,1.873,1.427,1.574,1.722,1.664z M1.267,2.423c0.227-0.205,0.451-0.41,0.685-0.606
    C1.93,1.693,2.023,1.685,2.028,1.588h0.229c0.103,0.381-0.261,0.296-0.305,0.531C1.972,2.24,1.88,2.25,1.877,2.346
    c0.021,0.335,0.121,0.588,0.075,0.988C1.681,3.342,1.676,3.613,1.344,3.561C1.367,3.133,1.21,2.887,1.267,2.423z M1.344,5.688
    V4.094C1.539,3.908,1.74,3.729,1.951,3.562C2.246,4.051,2.13,4.953,2.406,5.459C2.131,5.615,1.656,5.57,1.344,5.688z
     M19.565,16.771c-0.109,0.954-0.158,1.969-0.38,2.809c-2.89,0.123-6.02,0.006-8.883,0.154c-0.198,0.045-0.272-0.031-0.229-0.229
    c-0.253,0-0.258,0.247-0.531,0.229c0.201-0.337,0.438-0.898,0.151-1.291c-0.797,0.012-0.797,0.82-1.139,1.291
    c-0.686-0.054-1.137,0.127-1.822,0.074c0.18-0.705,0.75-1.021,0.91-1.745c-0.395-0.55-0.988,0.138-1.214,0.455
    c-0.204,0.479-0.557,0.81-0.76,1.29H4.684c0.238-0.469,0.489-0.926,0.76-1.365c0.171-0.513,0.625-0.742,0.683-1.367
    c-0.157-0.28-0.42-0.029-0.683,0c-0.123,0.182-0.272,0.334-0.38,0.53c-0.232,0.376-0.501,0.714-0.685,1.14
    c-0.181,0.209-0.335,0.004-0.53,0.228c-0.389,0.271-0.581,0.736-0.987,0.987C2.688,19.9,2.901,19.604,3.014,19.58
    c0.045-0.18-0.096-0.549,0.075-0.606c0.063-0.366,0.212-0.647,0.379-0.91c0.119-0.741,0.521-1.198,0.685-1.897
    c-0.56,0.099-0.674,0.643-0.988,0.986c-0.212,0.445-0.542,0.772-0.683,1.291c-0.175-0.131-0.028-0.58-0.076-0.836
    c0.122-0.586,0.298-1.119,0.38-1.746c0.133-0.22,0.173-0.535,0.228-0.834c0.168-0.209,0.046-0.609-0.076-0.761
    C2.711,14.294,2.563,14.4,2.482,14.57c-0.192-0.031-0.193,0.506-0.305,0.305c-0.045-2.588-0.451-4.813-0.456-7.438
    c0.026-0.331-0.183-0.424-0.228-0.685C3.123,6.779,4.615,6.843,6.277,6.98C6.188,7.119,6.078,7.238,5.972,7.359
    C5.829,7.43,5.747,7.533,5.594,7.664c-0.604,1.652-0.975,3.983-0.606,6.149c0.229,0.58,0.589,1.029,0.985,1.441
    c0.907,0.485,1.636,1.149,2.507,1.671c1.7,0.361,3.84,0.369,5.541,0c0.235-0.12,0.483-0.227,0.685-0.38
    c1.364-1.242,2.753-2.459,2.961-4.859V10.32c-0.197-1.599-0.688-2.906-1.747-3.645c0.331-0.221,1.099,0.043,1.67,0.076
    c0.224,0.013,0.447,0.014,0.685,0c0.407-0.024,0.928-0.055,1.442,0c0.145,0.187,0.113,0.544,0.229,0.76
    c-0.063,1.684-0.192,3.3-0.152,5.087c0.104,0.454,0.127,0.986,0.229,1.44C19.93,15.013,19.785,15.93,19.565,16.771z M19.944,5.611
    c-0.64-0.119-1.232-0.283-1.897-0.379c0.072-0.332,0.799-0.01,0.987-0.228c0.385-0.224,0.295-0.92,0.304-1.511
    c0.032-0.348,0.114-0.644,0.076-1.063c-0.401-0.951-1.783-0.421-2.886-0.455c-0.226,0.719-0.471,1.801-0.305,2.657
    c0.169,0.489,1.024,0.292,1.52,0.456c-0.141,0.332-0.688,0.057-0.987,0.076c-0.296-0.084-0.707-0.053-0.986-0.151
    c-2.284,0.078-4.283,0.004-6.528,0.151c0.117-1.248,0.063-2.465-0.076-3.646h3.112c-0.345,0.364-0.912,0.507-1.29,0.835
    c-0.44,0.244-0.861,0.506-1.14,0.911c0.249,0.134,0.535-0.245,0.76-0.379c0.354-0.074,0.479-0.381,0.835-0.455
    c0.423-0.438,1.096-0.625,1.67-0.912c0.378-0.022,0.696,0.013,0.986,0.077c1.283,0.007,2.456,0.126,3.796,0.076
    c0.614,0.145,1.45,0.068,1.975,0.304c0.106,0.298,0.23,0.579,0.305,0.911C20.181,3.875,20.025,4.705,19.944,5.611z M14.098,1.892
    C14.209,1.845,14.09,1.8,14.098,1.892L14.098,1.892z M14.098,1.892C13.57,2.046,13.08,2.24,12.732,2.574
    C13.216,2.376,13.791,2.268,14.098,1.892z M15.161,2.498C15.272,2.451,15.154,2.408,15.161,2.498L15.161,2.498z M13.415,3.41
    c0.727-0.158,1.181-0.592,1.746-0.912c-0.438,0.02-0.592,0.32-0.987,0.38C13.959,3.095,13.574,3.138,13.415,3.41z M12.732,2.574
    C12.621,2.621,12.739,2.666,12.732,2.574L12.732,2.574z M12.049,3.182C12.159,3.136,12.041,3.09,12.049,3.182L12.049,3.182z
     M11.973,3.258c0.063,0.014,0.07-0.03,0.075-0.076C11.985,3.168,11.976,3.212,11.973,3.258z M11.897,3.334
    c0.063,0.014,0.071-0.03,0.076-0.076C11.907,3.244,11.902,3.287,11.897,3.334z M11.063,3.941c0.346-0.134,0.612-0.348,0.834-0.606
    C11.549,3.468,11.282,3.682,11.063,3.941z M13.339,4.929c0.533-0.049,0.749-0.416,1.215-0.531c0.284-0.298,0.784-0.381,0.987-0.76
    c-0.56,0.022-0.766,0.399-1.216,0.531C14.041,4.466,13.574,4.582,13.339,4.929z M11.063,3.941
    C10.746,3.867,11.047,4.169,11.063,3.941L11.063,3.941z M10.53,4.32c0.021,0.021,0.114-0.037,0.076-0.076
    C10.585,4.224,10.49,4.281,10.53,4.32z M13.339,4.929C13.229,4.976,13.345,5.02,13.339,4.929L13.339,4.929z M12.199,6.75
    c-0.224-0.231-0.676-0.233-0.986-0.379C10.515,6.332,9.99,6.464,9.467,6.6C9.163,6.751,8.86,6.904,8.556,7.054
    C8.291,7.22,8.113,7.471,7.797,7.586c-0.205,0.225-0.352,0.51-0.684,0.607C7.109,8.416,6.94,8.474,6.808,8.572
    C6.719,8.687,6.715,8.884,6.582,8.953C6.575,9.072,6.618,9.242,6.506,9.256c0.108,1.512,0.291,2.947,0.684,4.177
    c0.286,0.623,0.975,0.847,1.441,1.29c0.589,0.297,1.328,0.443,2.126,0.531c0.277-0.053,0.553-0.105,0.911-0.076
    c1.209-0.209,2.098-0.736,2.81-1.441c0.101-0.281,0.253-0.508,0.455-0.684c-0.254-0.671,0.293-1.098,0.455-1.59
    c0.002-1.344-0.2-2.48-0.606-3.415c-0.256-0.579-0.92-0.751-1.366-1.14c-0.059-0.018-0.15-0.002-0.151-0.076
    C12.995,6.695,12.531,6.593,12.199,6.75z M8.784,11.076c-0.113-0.063-0.109-0.244-0.152-0.379
    C8.887,10.619,8.75,10.935,8.784,11.076z M8.86,11.382c0.041-0.117,0.079-0.006,0.075,0.075
    C8.896,11.574,8.857,11.462,8.86,11.382z M9.316,9.33c0.015-0.086,0.074-0.041,0.074,0C9.377,9.418,9.316,9.373,9.316,9.33z
     M10.986,7.205c-0.203,0.259,0.041,0.576,0.077,0.836C10.758,8.003,10.489,7.154,10.986,7.205z M11.365,11.154
    c-0.04-0.039,0.055-0.098,0.076-0.076C11.481,11.115,11.386,11.175,11.365,11.154z M12.124,14.037
    c0.034-0.108,0.066,0.009,0.152,0C12.258,14.135,12.126,14.115,12.124,14.037z M14.325,11.457
    c-0.233-0.057-0.146,0.207-0.379,0.152c0.068-0.16,0.118-0.339,0.229-0.455C14.308,11.173,14.346,11.283,14.325,11.457z
     M13.188,7.66c0.211,0.119,0.44,0.218,0.605,0.381c0.085,0.22,0.243,0.363,0.38,0.529c0.059,0.778,0.179,1.492,0.151,2.354
    c-0.257,0.099-0.438,0.271-0.684,0.381c-0.779-0.006-1.357-0.212-1.896-0.456c-0.171-0.259-0.355-0.505-0.532-0.759V9.029
    c0.17-0.186,0.319-0.392,0.456-0.607c0.229-0.127,0.508-0.201,0.454-0.607c-0.038-0.062-0.078-0.123-0.075-0.229
    c0.158,0.045,0.245,0.158,0.379,0.229C12.75,7.832,12.837,7.615,13.188,7.66z" />
  </symbol>
  <symbol viewBox="0 0 30 30" id="icon-fb">
    <path d="M11.662,5.193c1.026,0.028,1.993,0,2.681-0.3c0.391-0.818,0.557-1.854,0.619-2.989
    c-0.189-0.015-0.063-0.337-0.207-0.399c-0.029-0.201-0.277-0.194-0.309-0.397c-0.277-0.165-0.457-0.422-0.723-0.599
    c-0.728-0.162-1.44-0.334-2.164-0.498c-0.85,0.043-1.896-0.104-2.58,0.1C6.36,0.07,4.981,1.23,3.719,2.503
    C3.696,2.581,3.716,2.699,3.614,2.701C3.041,4.288,3.489,6.322,3.411,8.282C3.509,8.718,3.518,9.24,3.614,9.677
    c-0.997,0.297-2.211,0.388-3.401,0.5c-0.317,0.324-0.178,1.088-0.206,1.693c0.085,0.582,0.278,1.059,0.413,1.594
    c0.211,0.193,0.597,0.396,0.825,0.498c0.064,0.029,0.07,0.082,0.104,0.101c0.506,0.269,1.45,0.008,2.268,0.101
    c-0.137,1.977,0.256,3.915,0,5.68c0.007,0.326,0.295,0.381,0.207,0.797c0,0.963-0.066,1.99,0.209,2.691
    c-0.287,0.455-0.497,0.98-0.415,1.793c0.122,0.016,0.114,0.156,0.104,0.299c-0.074,0.471,0.643,0.176,0.516,0.699
    c0.162,0.455-0.428,0.184-0.414,0.498v0.895c0.531,0.285,1.463,0.182,2.269,0.199C7,27.296,8.28,27.236,8.876,26.519
    c0.459,0.234,0.916-0.014,1.237-0.199c-0.018-0.314,0.273-0.334,0.205-0.697c-0.004-0.328-0.172-0.496-0.103-0.896v-2.891
    c-0.206-2.293-0.048-4.938-0.309-7.176c0.888-0.105,1.917-0.074,2.577-0.399c0.357-0.45,0.377-1.229,0.517-1.895
    c0.177-0.227,0.222-0.583,0.206-0.996c0.189-0.213,0.068-0.729,0.104-1.096c-0.141-0.596-0.168-1.301-0.824-1.391
    c-0.885-0.234-2.043,0.596-2.991,0.299c0.049-1.133-0.293-2.342,0-3.387C10.242,5.614,10.942,5.396,11.662,5.193z M7.843,9.977
    c0.117,0.254,0.255,0.485,0.414,0.698c0.079,0.021,0.203,0.002,0.205,0.101c1.192,0.056,2.199-0.069,3.097-0.299
    c0,0.997-0.271,1.733-0.519,2.491c-0.662,0.045-1.468,0.301-1.958,0.199c-0.275,0.164-0.372,0.506-0.62,0.697
    c-0.049,0.441,0.142,0.495,0,0.797c-0.201,0.137-0.055,0.611-0.205,0.797v1.496c0.085,0.279-0.146,0.258-0.104,0.496v3.488
    c-0.084,0.281,0.146,0.258,0.104,0.498v2.988c0.063,0.271-0.132,0.791,0.103,0.896c-0.069,0.363-0.412-0.021-0.823,0.1
    c-0.528,0.123-0.927,0.369-1.548,0.4c0.117-0.354,0.32-0.623,0.311-1.098c0.049-0.381-0.365-0.311-0.516-0.49
    c0.193-0.643,0.563-1.117,0.722-1.793c0.197-0.514,0.714-1.297,0.31-1.793c-0.521-0.105-0.521,0.293-0.826,0.398
    c-0.021,0.076-0.002,0.195-0.103,0.199c-0.022,0.076-0.003,0.195-0.103,0.197c0.01,0.121-0.151,0.063,0,0
    c0.021-0.078,0.002-0.195,0.103-0.197c0.023-0.078,0.003-0.197,0.103-0.199v-0.299c0.369-0.576,0.671-1.215,0.826-1.994
    c0.191-0.279,0.283-0.656,0.412-0.996c0.156-0.262,0.34-0.869,0.104-1.195c-0.517,0.033-0.796,0.295-0.931,0.697
    c-0.319-0.189,0.162-0.436,0.104-0.697c0.138-0.23,0.169-0.566,0.31-0.797c0.201-0.414,0.563-1.305,0-1.596
    c-0.438-0.023-0.612,0.208-0.724,0.499c-0.214,0.189-0.43,0.383-0.516,0.697c-0.373-0.07-0.144-0.727-0.206-1.097
    c-0.067-0.521,0.122-0.899,0-1.195c-0.561-0.799-2.026-0.104-3.197-0.299c-0.107-0.308-0.222-0.983-0.104-1.194
    c1.045-0.089,2.479,0.2,3.197-0.199c0.023-0.078,0.002-0.197,0.104-0.199c0.094-0.723-0.271-1-0.516-1.396
    c0.232-0.806,0.041-2.02,0.104-2.988c0.233-0.142,0.328-0.414,0.515-0.599c0.112-0.955,0.674-1.476,0.723-2.489
    c-0.273,0-0.607-0.056-0.619,0.198C5.274,3.792,5.194,4.386,5.061,4.105C4.95,3.564,5.307,3.479,5.371,3.108
    c0.599-0.418,1.212-0.82,1.856-1.195c1.74-0.244,4.647-0.449,6.086,0.198c0.051,0.616-0.287,0.854-0.207,1.496h-1.547
    c-1.092,0.239-1.986,0.672-2.99,0.997c-0.24,0.066-0.276,0.331-0.517,0.398C8.016,5.398,7.828,5.648,7.742,5.999
    C7.663,7.429,7.875,8.587,7.843,9.977z" />
  </symbol>
  <symbol viewBox="0 0 30 30" id="icon-twitter">
    <path d="M23.452,4.083c-0.227-0.366-0.91-0.277-1.408-0.371h-1.111c0.143-0.354,0.344-0.646,0.52-0.963
    c0.057-0.438,0.254-0.734,0.225-1.261c0.129-0.167,0.176-0.417,0.295-0.593c0.104-0.145,0.242-0.477,0.074-0.667
    c-0.051-0.221-0.295-0.249-0.594-0.222c-0.088,0.035-0.168,0.078-0.221,0.147c-0.449,0.433-0.779,1.015-1.262,1.408
    c-0.01,0.008-0.063,0-0.074,0c-0.086,0.005-0.033,0.046-0.074,0.074c-0.146,0.098-0.258,0.151-0.369,0.223
    c-0.285,0.177-0.547,0.445-0.891,0.519c-0.529-0.211-1.156-0.325-1.854-0.369c-1.156,0.102-2.303,0.215-3.037,0.74
    c-0.91,0.351-1.477,1.043-2.149,1.631c-0.049,0.32-0.342,0.397-0.371,0.74c-0.004,0.045-0.012,0.088-0.072,0.074
    c0.043,0.241-0.051,0.346-0.074,0.52c-0.001,0.133,0.199,0.431,0,0.52c-0.822-0.12-1.484-0.63-2.148-0.964
    c-0.719-0.36-1.469-0.604-2.074-1.11c-0.717-0.322-1.26-0.816-1.778-1.334C4.795,2.513,4.461,2.329,4.336,1.935
    c-0.379-0.164-0.175-0.912-0.74-0.889C3.281,1.003,3.25,1.245,3.151,1.415c-0.069,0.228-0.36,0.232-0.37,0.52
    C2.776,1.98,2.77,2.022,2.707,2.01C2.537,3.099,2.18,4.001,2.188,5.27c0.129,0.415,0.35,0.738,0.593,1.038
    c-0.418,0.051-0.716,0.222-0.89,0.52C1.831,7.899,2.268,8.474,2.633,9.124c0.133,0.384,0.352,0.685,0.592,0.963
    c0.018,0.229,0.207,0.287,0.297,0.445c0.019,0.104,0.123,0.125,0.148,0.223c-0.04,0.104,0.289,0.18,0.073,0.221
    c-0.413,0.131-1.017,0.07-1.259,0.371c-0.109,0.279-0.109,0.833,0,1.111c0.033,0.236,0.281,0.262,0.296,0.519
    c0.499,0.417,1.082,0.747,1.631,1.112c0.574,0.166,1.211,0.271,1.853,0.369C6.162,14.802,5.926,15.01,5.67,15.2
    c-0.779,0.381-1.849,0.474-2.742,0.739c-0.555,0.038-0.955,0.229-1.556,0.224C1.04,16.29,0.518,16.237,0.26,16.386
    c-0.121,0.068-0.102,0.096-0.222,0.221c-0.134,0.412,0.11,0.74,0.444,0.891c-0.006,0.252,0.219,0.275,0.371,0.371
    c0.088,0.183,0.254,0.289,0.445,0.369c0.543,0.469,1.268,0.76,1.926,1.112c0.83,0.183,1.648,0.376,2.521,0.519
    c0.896,0.116,1.901,0.125,2.815,0.223h0.963c0.512,0.132,1.23,0.054,1.854,0.074c0.096-0.103,0.322-0.073,0.52-0.074
    c0.522-0.27,1.196-0.385,1.631-0.74c0.574-0.241,0.988-0.643,1.557-0.891c0.865-0.765,1.938-1.323,2.52-2.369
    c0.205-0.189,0.35-0.438,0.445-0.74c0.264-0.156,0.385-0.454,0.592-0.667c0.404-0.41,0.707-0.924,1.037-1.399
    c0.318-0.496,0.576-1.055,0.891-1.557c-0.01-0.404,0.305-0.484,0.295-0.891c0.193-0.226,0.178-0.661,0.371-0.879
    c-0.033-0.256,0.029-0.416,0.074-0.595c0.047-1.28-0.047-2.422-0.297-3.407c0.588-0.154,1.182-0.302,1.631-0.593
    C23.163,5.157,23.638,4.761,23.452,4.083z M20.044,8.159c-0.152,0.858-0.615,1.409-1.039,2c0.061,0.379-0.104,0.538-0.072,0.889
    c-0.158,0.313-0.287,0.652-0.371,1.037c-0.203,0.268-0.332,0.606-0.52,0.891c-0.365,0.548-0.775,1.051-1.186,1.557
    c-0.377,0.561-0.912,0.965-1.334,1.481c-0.42,0.493-0.941,0.885-1.406,1.334c-0.475,0.17-0.891,0.396-1.26,0.667
    c-0.232,0.09-0.463,0.18-0.668,0.296c-0.176,0.146-0.498,0.146-0.668,0.29c-1.086,0.146-2.299,0.17-3.555,0.148
    c-1.031-0.105-2.115-0.16-3.039-0.371c-0.922-0.189-1.511-0.713-2.297-1.037c0.153-0.242,0.635-0.154,0.963-0.223
    c0.031-0.166,0.395-0.002,0.444-0.148c0.257,0.06,0.285-0.109,0.521-0.07c0.563-0.201,1.229-0.302,1.705-0.593
    c0.281-0.138,0.405-0.435,0.666-0.593c0.033-0.189,0.104-0.342,0.223-0.444c0.047-0.274,0.201-0.44,0.148-0.815
    c0.11-0.209,0.299-0.343,0.295-0.666c-0.074-0.147-0.127-0.316-0.295-0.371c-0.027-0.196-0.378-0.067-0.445-0.223
    C6.6,13.227,6.438,13.165,6.262,13.12c-0.154-0.043-0.488,0.092-0.52-0.074c-0.842-0.022-1.301-0.43-1.854-0.739
    c0.432-0.263,1.032-0.353,1.334-0.742c0.516-0.076,1.058-0.129,1.111-0.666c0-0.717-0.771-0.661-1.333-0.815
    c-0.772-0.66-1.194-1.672-1.778-2.52C3.46,7.407,3.787,7.337,3.963,7.12C4.417,7.178,4.503,6.868,4.63,6.6
    c0.019-0.488-0.333-0.604-0.593-0.815c-0.259-0.209-0.475-0.462-0.667-0.74C3.368,4.227,3.35,3.393,3.445,2.673
    c0.063-0.014,0.069,0.029,0.073,0.074c0.228,0.44,0.56,0.774,0.815,1.186C4.866,4.29,5.258,4.786,5.889,5.044
    c0.453,0.414,1.108,0.621,1.558,1.039c0.601,0.263,1.157,0.569,1.704,0.889c0.669,0.193,1.056,0.673,2,0.593
    c0.199-0.098,0.395-0.198,0.594-0.297c0.258-0.456-0.059-1.079,0.146-1.63c0.256-0.659,0.797-1.031,1.26-1.48
    c0.291-0.156,0.555-0.336,0.816-0.52c0.346-0.098,0.674-0.217,0.963-0.37c0.377-0.019,0.713-0.077,1.037-0.147h1.26
    c0.244,0.051,0.475,0.118,0.74,0.147c0.209,0.137,0.381,0.313,0.666,0.371c0.789,0.692,1.271,1.696,1.408,3.039
    C19.921,7.161,20.097,7.551,20.044,8.159z M20.341,2.526c-0.131,0.34-0.23,0.707-0.594,0.815
    c-0.018-0.105-0.123-0.125-0.146-0.222c-0.014-0.209,0.209-0.187,0.295-0.297C20.058,2.738,20.142,2.575,20.341,2.526
    C20.333,2.437,20.448,2.48,20.341,2.526z M14.856,5.564c0.162,0.136,0.283,0.31,0.518,0.371c0.102,0.222,0.314,0.327,0.596,0.37
    c0.047-0.15,0.346-0.049,0.369-0.223c0.174-0.022,0.166-0.229,0.297-0.297c-0.02-0.55-0.131-1.006-0.371-1.332
    C15.507,4.03,14.589,4.493,14.856,5.564z" />
  </symbol>
  <symbol id="logo-htmlacademy" viewbox="0 0 28 35">
    <path d="M13.62,0.017L13.472,0L0,1.412v24.661l13.474,8.017l13.43-7.99l0.042-0.024V1.412L13.62,0.017z
   M25.019,12.127L13.495,5.334L13.494,5.23l-0.087,0.05l-0.088-0.056v0.109L1.925,12.118V3.147l11.549-1.212L25.02,3.147
  L25.019,12.127L25.019,12.127z M13.405,6.787L24.923,13.5l-4.479,2.64l-7.093-4.221l-0.015,1.415l5.904,3.513l-0.86,0.507
  l-5.029-2.992l-0.015,1.415l3.827,2.275l-0.782,0.523l-3.03-1.787l-0.015,1.413l1.854,1.091l-1.8,1.081L2.034,13.622L13.405,6.787z
   M1.925,15.127l11.411,6.791l0.017,1.044L5.41,18.234L5.395,19.65l7.979,4.795l0.019,1.076l-7.974-4.74l-0.013,1.414l8.021,4.822
  l0.047,0.024l8.143-4.872l-0.011-5.177l3.415-2.036v10.021L13.472,31.85L1.925,24.979V15.127z" />
  </symbol>
</svg>
