<svg xmlns="http://www.w3.org/2000/svg" width="186.643" height="96.425" viewBox="0 0 186.643 96.425"><path fill="#81B3D3" d="M186.643 0H0l80.486 90.474c7.061 7.936 18.61 7.936 25.67 0L186.643 0z"/><path fill="#23A9E1" d="M43.242.721l49.523 58.35 49.324-57.997z"/><path fill="#FFF" d="M122.023 17.332l-15.187.084c6.001-6.931 8.697-6.19 15.187-.084zM80.849 22.69h26.68c-1.985-1.233-6.708-7.059-9.308-4.893-.212.178-7.505-8.848-12.296-4.499-4.179 3.799-6.12-.498-10.857 2.511-5.399 3.57 3.12 5.675 5.781 6.881z"/><path fill="#491213" d="M93.104.016h-50.92v22.463l50.581 61.522.339-.424 50.748-60.394V.016H93.104zM54.9 1.793h5.462v17.191L54.9 12.495V1.793zm-.784 9.77l-4.971-5.904V1.793h4.971v9.77zM73.42 8.855l-5.739-7.062h5.739v7.062zm-6.641 3.828L61.18 1.793h5.599v10.89zM61.146 3.44l5.523 10.744c-2.753 2.14-4.691 4.012-5.523 4.854V3.44zm6.416-.551l5.607 6.9a56.042 56.042 0 0 0-5.608 3.715V2.889zm6.642-.197l4.765 4.223a48.631 48.631 0 0 0-4.765 2.293V2.692zm5.574 3.893l-5.406-4.792h5.959v4.583c-.185.07-.371.138-.553.209zm19.119-4.792h4.99l-4.99 2.439V1.793zm-5.791 0h4.439l-4.439 2.055V1.793zm-.939 1.963l-4.241-1.963h4.241v1.963zm-5.491.526l-5.092-2.489h5.092v2.489zm-5.563-1.847l4.723 2.308a38.627 38.627 0 0 0-4.723 1.347V2.435zm6.346.005l3.465 1.604a32.01 32.01 0 0 0-3.465.39V2.44zm10.424.06v1.94a33.122 33.122 0 0 0-3.356-.388L97.883 2.5zm6.475-.065v3.701a39.937 39.937 0 0 0-4.775-1.366l4.775-2.335zm.784-.642h5.944l-5.435 4.818c-.168-.065-.341-.125-.511-.188l.002-4.63zm13.55 0h5.599l-5.599 10.876V1.793zm-6.641 0h5.739l-5.739 7.008V1.793zm-.783.887v6.532a50.693 50.693 0 0 0-4.806-2.272l4.806-4.26zm6.641.204v10.504a64.432 64.432 0 0 0-2.256-1.558 57.044 57.044 0 0 0-3.381-2.065l5.637-6.881zm6.416.552v15.241a63.087 63.087 0 0 0-5.479-4.6l5.479-10.641zm.783 16.004V1.793h5.463v11.405l-5.393 6.313a2.202 2.202 0 0 0-.07-.071zm6.247-17.647h4.97v4.668l-4.97 5.818V1.793zm-82.992 0v2.936l-2.471-2.936h2.471zm12.886 18.244l.141.13c.035-.038 3.583-3.869 9.215-7.648C75.791 9.04 83.84 4.904 92.761 4.953c8.9.043 17.063 4.193 22.346 7.667 5.646 3.712 9.284 7.456 9.446 7.625l-3.875 4.536c-6.912.949-11.863 6.077-18.604 4.956-3.396-.564-3.498-2.514-4.469-4.456-.746-1.493-1.937-1.303-3.487-1.91-1.442-.565-2.277-1.738-5.162-1.061-2.528.593-2.807 4.518-5.952 4.293-1.689-.121-1.811-2.497-4.244-5.539-6.302-7.571-12.158-6.523-16.247.475l30.251 35.938-31.515-37.44zm75.859-14.494v-3.75h3.203l-3.203 3.75z"/><path fill="#23A9E1" d="M88.745 70.916l4.02-6.5 4.004 6.5-4.004 6.514z"/><path fill="#FFF" d="M65.464 32.265c.513.618.891 1.284.806 2.116-.059.579-.936 1.55-.27 1.846l2.242-2.834c-.602-.151-5.365-5.848-5.442-6.472l-3.159 1.734c.164.661 1.294.005 1.854.046.828.06 1.425.56 1.953 1.152-1.728 1.449-5.931 5.017-6.374 5.09-.226.036-1.088-.601-1.101-.056-.006.262.852 1.014 1.015 1.21l2.229 2.653c.619-.282-.11-.732.205-1.243.232-.374 4.901-4.267 6.042-5.242zm-5.273-6.98c.443-.095.624.434.958-.056L58.7 22.312c-.371-.442-.84-.916-.706.018.089.63-6.113 5.664-6.493 5.82-.479.197-.758-.417-1.109.097l2.193 2.608c.246.292.477.612.747.882.339.339.208-.672.224-.585-.091-.513.527-.948.855-1.228 1.545-1.361 5.398-4.588 5.78-4.639zm-8.771-.917c-1.767.523-3.65-.164-4.207-2.042-.543-1.835.614-3.757 2.071-4.801 1.439-1.032 3.589-.97 4.373.838.346.799.158 1.706-.094 2.502-.16.506-.597 1 .056 1.289l2.581-3.286c-1.055-.633-1.518-1.683-2.3-2.595-.882-1.071-2.064-2.079-3.482-2.284-2.87-.406-5.574 2.556-5.795 5.245-.136 1.457.374 2.848 1.246 4.001.75.994 1.868 1.623 2.435 2.754.262.095 2.705-1.033 3.286-1.255-.052-.111-.089-.275-.17-.366-.761.226 0 0 0 0zm39.3 36.409c-1.15-.768-4.025-4.689-4.573-5.341l-.329-.392c-.011-.014-.284.225-.246.191-.173.145.134.573-.052.864-.793 1.241-5.758 4.983-6.016 5.163-.556.384-1.164-.159-1.489.316.719.854 2.78 3.543 3.019 3.582.479.078.148-.815.211-1 .123-.369 2.633-2.445 3.549-3.211.336-.281.688.426.888.723.327.484.474 1 .298 1.568-.116.37-.717.92-.25 1.174l2.613-3.049c.252-.293-.566-.037-.469-.087-.37.191-.718.235-1.063-.028-.096-.071-1.089-1.082-.99-1.166.431-.361.959-.963 1.517-1.1.862-.213 1.582 1.516 1.709 2.129a3.45 3.45 0 0 1-.076 1.75c-.124.387-.487.696.018.93.712-.974 1.422-1.946 2.131-2.92a.708.708 0 0 1-.4-.096c-.127-.085.139.07 0 0zm-10.224-4.131c2.205-1.855 2.482-5.053.769-7.339-1.867-2.489-5.371-3.096-7.804-1.052-2.204 1.854-2.489 5.047-.758 7.325 1.991 2.621 5.199 2.918 7.793 1.066 1.156-.975-.099.07 0 0zm-.465-4.753c-.647 1.51-2.201 3.063-3.732 3.667-1.818.715-3.1-.827-2.36-2.553.65-1.516 2.203-3.057 3.737-3.666 1.852-.735 3.066.846 2.355 2.552-.381.89.071-.169 0 0zm-5.979-9.856c.475.06.926.55 1.269.042-.742-.879-1.484-1.758-2.228-2.637-.595.269.047.549-.194.971-.244.427-2.56.781-3.176.89.224-.644.895-2.615 1.157-2.835.544-.445.883.432 1.283-.141l-2.743-3.253c-.31-.366-.559-1.028-.98-.68.038-.031.006 1.472-.089 1.733-.086.236-.936 3.638-1.926 4.47-.493.414-2.237 1.934-2.702 2.097-.541.189-.825-.598-1.22-.038l2.491 2.957c.125.148.602.863.767.893.521.094.06-.893.113-1.086.151-.431 2.5-2.719 3.497-2.859 1.461-.205 3.2-.702 4.681-.524.339.042-.352-.043 0 0z"/><path fill="#DC6243" d="M67.792 22.874c-4.043-.167-2.351-3.954.395-4.808 2.611-.813 8.089 1.717 9.843 3.398-2.783.855-6.386.732-9.447.874-.226-3.12-.958-2.032-.791.536zm9.503 12.549c-8.62-.071-2.792-13.322.141-12.521 3.373 1.073 2.995 12.622-.141 12.521zm6.106-4.329c-.84 2.501-2.361 2.968-2.192-.07.194-3.503 2.479-2.662 4.93-4.004 2.04-1.119 3.139-5.214 6.641-2.765 1.562 1.093 3.352.179 3.851 1.833-.025-.084-4.545 10.308-2.031 10.308-4.961 0-2.773-5.922-.874-9.899-1.847.885-4.842 6.688-2.382 7.643-1.281 1.686-5.194 3.945-7.234 2.298-1.552-1.249-.692-3.325-.709-5.344zm4.104 9.603c-3.489 1.046-8.122-1.207-2.51-2.34 3.483-.704 7.187.778 2.51 2.34.141-.042-.128.043 0 0zm4.37-.141c-.736-1.658.562-3.635 2.68-2.199 1.847 1.252-.851 3.106-2.68 2.199zm-2.946 4.668c-2.411-.747-10.537-.561-5.218-2.764 1.64-.679 10.154.098 5.218 2.764zm10.434 3.314c-1.437-1.227-2.891-1.295-4.229 0-1.795-3.293-8.318-2.19-11.366-2.651 1.638 4.029 14.864 4.78 15.595 2.651zm-1.903 2.424c-3.151-.146-6.671-.563-9.646.084 1.86.466 6.396 1.795 2.172 2.918 1.515 2.168 3.973 2.029 5.584.127-.655-.322-1.01-.719-1.552-1.057 1.672-.303 3.234-1.267 3.442-2.072zm3.596-3.877c-5.288-3.112-3.95-5.427.354-7.586 2.254-1.131 7.324-5.208 9.447-3.85l-9.801 11.436z"/><path fill="#F49774" d="M97.291 39.809c-4.479-4.601 6.689-4.178 8.487-5.796 1.311.437 10.768-8.283 13.071-7.741-1.655 1.941-5.22 8.136-7.775 8.136-1.964 0-3.95-.292-5.472 1.107-2.224 2.048-5.908 3.09-8.311 4.294z"/><path fill="#F4B1A4" d="M98.758 34.183c-2.453 1.319-4.772-3.907-.537-3.398 2.813.338 5.662-.237 8.348.226-1.927 2.291-4.706 3.553-7.811 3.172z"/><g fill="#FFF"><path d="M111.39 52.466c.191.648.299 1.332.215 2.009-.107.873-.979 2.925-2.173 2.34-1.169-.573-2.194-1.728-3.188-2.552.802-.936 1.507-1.749 2.854-1.295.37.123.688-.036.299-.262-.405-.234-3.114-1.965-3.261-1.799-.271.311.528.868.221 1.473-.229.447-.61.834-.932 1.219-.72-.607-1.923-1.253-1.057-2.256.542-.66 1.25-1.172 2.098-1.342.565-.114 1.841.389 2.006-.224l-3.258-1.565c.177.799-3.349 4.525-4.131 5.464-.113.137-.658.609-.664.797-.009.429.622.097.657.084.486-.18 6.816 5.109 6.973 5.471.1.281-.221.574-.029.732-.011-.01.228.216.253.184.391-.468 4.522-5.975 5.374-6.217-.794-1.215-1.588-2.43-2.368-3.652-.59.258-.019.949.111 1.391zm-6.161 6.703c-2.077-1.34-5.596 1.279-6.125 1.531-1.039.492-1.789-.543-1.251-1.502.469-.83 1.393-1.234 2.31-1.289.277-.017 1.35.198 1.459.026.13-.202.228-.22.042-.345l-2.567-1.734c-.176 1.055-1.385 1.727-2.076 2.441-.823.854-1.52 1.93-1.52 3.156 0 1.135.679 2.142 1.677 2.66 1.136.592 2.317.116 3.324-.511.627-.392 1.254-.856 1.924-1.171.996-.467 2.304-.063 1.953 1.27-.282 1.073-1.351 2.061-2.405 2.34-.616.164-1.27.109-1.872-.09-.432-.142-.993-.734-1.23-.111l3.482 2.537c.103-.76.522-1.09 1.086-1.564.735-.645 1.438-1.32 1.994-2.13 1.159-1.693 1.538-4.062-.205-5.514z"/><path d="M105.229 59.169c.925.598-.591-.494 0 0zm29.233-37.314c-.007.004-.007.004 0 0z"/><path d="M141.92 19.645c-.729.729-8.42-2.341-8.982-2.764-.29-.116-.3-1.321-.705-.833-.404.488-.81.976-1.216 1.463l-1.256 1.513c-.26.314-.537.458-.038.72.837-.419 5.417 7.346 5.008 8.461-.725.376-6.915-5.057-7.081-5.415-.052-.146.273-1.021-.211-.945-.229.036-.743.896-.889 1.072l-.889 1.072c.332.485.517-.021.959.042.383.077 1.844 1.331 2.241 1.664-.725.027-2.685.131-2.934.113-.903.112-.422-.663-1.015-.931-.759.922-1.52 1.843-2.277 2.764l-1.326 1.607c-.054.065-.047.032.05.112.33.273.104.168.568.006.506-.177 6.559 4.931 6.776 5.19.377.45-.154.975.411 1.221.6-.728 1.198-1.457 1.798-2.184.091-.11.141-.1.021-.198-.427-.353-.476.212-1.002.154-.533-.089-4.395-3.369-5.895-4.61l8.199-.304c.3-.011 1.139.896 1.068 1.216-.081.378-.463.558.054.794.479-.575.985-1.149 1.456-1.734l.227-.282a.74.74 0 0 0 .21-.265l.168-.211c.425-.485 1.8-2.006 1.635-2.15-.461-.4-.685.466-1.298-.054-.348-.249-1.223-1.788-1.443-2.162-.264-.449.608-.897.964-1.119.776-.482 3.247-1.183 3.482.348.04.258-.271.55-.084.704.044.037.204.242.27.163.163-.197 2.361-2.843 3.3-3.969-.098-.082-.207-.224-.324-.269zm-7.374 2.156c.077-.049.153-.098 0 0a2.533 2.533 0 0 0-.084.054l.082-.052c-.345.22-.668.473-.958.761-.521-.897-1.044-1.795-1.564-2.693 1.177.491 2.352.985 3.524 1.481a3.735 3.735 0 0 0-1 .449zm-9.745 11.211c-2.375-1.979-5.63-1.404-7.586.832-1.903 2.313-1.712 5.663.605 7.615 2.339 1.926 5.67 1.438 7.572-.846 1.898-2.303 1.768-5.668-.591-7.601zm-.281 6.614l-.026.027c-1.232 1.292-3.358.096-4.505-.731-1.146-.829-3.111-2.57-1.856-4.104 1.056-1.287 3.124-.231 4.191.482 1.2.803 3.412 2.596 2.276 4.216.074-.09.126-.148-.08.11z"/><path d="M124.801 33.012c1.171.959-.253-.211 0 0zm-.309 6.641l.026-.027c.029-.037.056-.073.08-.11-.049.061-.11.137-.106.137zm-6.283 2.483c.112.094.273.224-.063-.057-2.835-2.127-6.194-1.504-8.402 1.157-.988 1.189-1.976 2.378-2.961 3.567.351.512.763-.118 1.273.176.436.25 6.244 5.101 6.339 5.366.164.458-.255.548.144.875.172.143 4.536-5.245 4.935-6.191.69-1.755.14-3.678-1.265-4.893zm-1.318 6.754c-.24.296-.044.054-.665.65-.306.293-6.438-4.675-6.192-4.944.835-.918 2.567-1.556 3.577-1.297 2.19.56 5.213 3.26 3.28 5.591z"/></g></svg>