<svg xmlns="http://www.w3.org/2000/svg">
  <symbol viewbox="0 0 27 34" id="logo-htmlacademy">
    <path d="M13.62,0.017L13.472,0L0,1.412v24.661l13.473,8.017l13.43-7.99l0.042-0.025V1.412L13.62,0.017z M25.019,12.127L13.495,5.334 L13.494,5.23l-0.087,0.05l-0.088-0.056v0.109L1.925,12.118V3.147l11.548-1.212l11.547,1.212V12.127z M13.405,6.787L24.923,13.5 l-4.479,2.64l-7.093-4.221l-0.014,1.415l5.904,3.513l-0.86,0.507l-5.03-2.992l-0.014,1.415l3.827,2.275l-0.782,0.523l-3.031-1.787 l-0.014,1.413l1.853,1.091l-1.8,1.081L2.034,13.622L13.405,6.787z M1.925,15.127l11.411,6.791l0.016,1.044L5.41,18.234L5.395,19.65 l7.979,4.795l0.018,1.076l-7.973-4.74l-0.013,1.414l8.021,4.822l0.046,0.025l8.143-4.872l-0.011-5.177l3.415-2.036v10.021 L13.472,31.85L1.925,24.979V15.127z" />
  </symbol>
  <symbol viewbox="0 0 18 15" id="icon-twitter">
    <path fill="#FFFFFF" d="M11.283,0.153c1.736-0.484,3.074,0.264,3.685,1.15c0.694-0.225,1.372-0.47,2.072-0.69
      c-0.004,0.841-0.538,1.478-0.883,1.728C16.861,2.506,17.5,1.86,17.5,1.86c-0.175,0.977-1.035,1.746-1.611,1.977
      C15.65,10.429,12.617,14.792,5.507,14.66c-0.538,0,0.077,0-0.46,0c-0.422,0-4.29-0.449-5.047-1.843
      c2.341,0.192,4.011-0.411,4.835-1.149c-0.989-0.293-2.761-0.465-3.07-2.881c0.362,0.104,0.583,0.223,1.228,0.116
      C1.757,8.067,0.385,7.366,0.461,5.218c0.294,0.319,1.1,0.523,1.381,0.461c-0.725-0.235-2.03-3.281-0.921-4.836
      C2.794,2.655,4.769,4.364,8.29,4.528C8.506,2.288,9.461,0.788,11.283,0.153z" />
  </symbol>
  <symbol viewbox="0 0 9 19" id="icon-facebook">
    <path fill="#FFFFFF" d="M6.275,3.356c0.799,0,1.599,0,2.397,0c0-1.119,0-2.236,0-3.355c-0.959,0-1.92,0-2.878,0
  C2.656,0.181,1.54,2.387,1.948,6.115H0v3.518h1.959c0,3.104,0,6.208,0,9.312c1.279,0,2.559,0,3.837,0c0-3.104,0-6.208,0-9.312h2.856
  V6.115H5.787C5.766,5.069,5.75,3.709,6.275,3.356z" />
  </symbol>
  <symbol viewbox="0 0 20 14" id="icon-youtube">
    <path fill="#FFFFFF" d="M17.145,0H2.835C1.275,0,0,1.275,0,2.835v8.346c0,1.56,1.274,2.835,2.835,2.835h14.31
  c1.561,0,2.835-1.275,2.835-2.835V2.835C19.979,1.275,18.704,0,17.145,0z M7.036,10.392v-6.77l6.769,3.384L7.036,10.392z" />
  </symbol>
</svg>
